<svg width="1920" height="1080" viewBox="0 0 1920 1080" fill="none" xmlns="http://www.w3.org/2000/svg">
<rect width="1920" height="1080" fill="#FEFFD0"/>
<g clip-path="url(#clip0_65_176)">
<path d="M1345.58 450H1214.91C1208.57 450 1203.43 455.14 1203.43 461.48V618.84C1203.43 625.18 1208.57 630.32 1214.91 630.32H1345.27C1348.31 630.32 1351.24 629.11 1353.39 626.96C1355.54 624.81 1356.75 621.89 1356.75 618.84V567.23H1333.79V607.36H1226.4V472.97H1334.1V491.27H1256.19C1249.85 491.27 1244.71 496.41 1244.71 502.75V577.53C1244.71 583.87 1249.85 589.01 1256.19 589.01H1315.49V566.04H1267.67V514.22H1345.58C1351.92 514.22 1357.06 509.08 1357.06 502.74V461.48C1357.06 455.14 1351.92 450 1345.58 450Z" fill="#7115AA"/>
<path d="M527.86 449.99H370V473.1H516.3V532.81H422.97C416.59 532.81 411.41 537.98 411.41 544.37V590.05H434.53V555.93H527.86C534.24 555.93 539.42 550.76 539.42 544.37V461.54C539.42 455.16 534.25 449.98 527.86 449.98V449.99Z" fill="#7115AA"/>
<path d="M452.82 607.34H393.12V514.51H498.01V491.4H381.56C375.18 491.4 370 496.57 370 502.96V618.91C370 625.29 375.17 630.47 381.56 630.47H464.38C470.76 630.47 475.94 625.3 475.94 618.91V574.23H452.82V607.36V607.34Z" fill="#7115AA"/>
<path d="M1163.63 630.46H1122.22C1115.84 630.46 1110.66 625.29 1110.66 618.9V461.54C1110.66 455.16 1115.83 449.98 1122.22 449.98H1175.25V473.1H1133.78V607.34H1152.08V491.4H1175.19V618.9C1175.19 625.28 1170.02 630.46 1163.63 630.46Z" fill="#7115AA"/>
<path d="M619.6 630.46H578.19C571.81 630.46 566.63 625.29 566.63 618.9V461.54C566.63 455.16 571.8 449.98 578.19 449.98H631.22V473.1H589.75V607.34H608.05V491.4H631.16V618.9C631.16 625.28 625.99 630.46 619.6 630.46Z" fill="#7115AA"/>
<path d="M913.18 461.54V618.9C913.18 625.28 908.01 630.46 901.63 630.46H850.21V607.34H890.07V473.1H829.48L796.44 550.62C794.62 554.88 790.44 557.64 785.81 557.64C781.18 557.64 777 554.88 775.18 550.62L742.14 473.1H681.55V607.34H721.41V630.46H669.99C663.61 630.46 658.44 625.28 658.44 618.9V461.54C658.44 455.16 663.61 449.99 669.99 449.99H749.77C754.41 449.99 758.59 452.75 760.41 457.01L785.81 516.61L811.21 457.01C813.03 452.75 817.21 449.99 821.85 449.99H901.63C908.01 449.99 913.18 455.16 913.18 461.54Z" fill="#7115AA"/>
<path d="M871.77 502.96V589.04H850.21V523.3L818.46 596.7C816.65 600.96 812.46 603.72 807.83 603.72H763.79C759.16 603.72 754.97 600.96 753.16 596.7L721.41 523.3V589.04H699.85V502.96C699.85 496.57 705.03 491.4 711.41 491.4H722.15C726.78 491.4 730.97 494.16 732.78 498.42L768.28 580.61H803.34L838.84 498.42C840.65 494.16 844.84 491.4 849.47 491.4H860.21C866.59 491.4 871.77 496.57 871.77 502.96Z" fill="#7115AA"/>
<path d="M1061.28 607.34H964.47V491.4H941.35V618.9C941.35 625.28 946.52 630.46 952.91 630.46H1072.84C1079.22 630.46 1084.4 625.29 1084.4 618.9V566.46H1061.28V607.34Z" fill="#7115AA"/>
<path d="M982.76 577.49C982.76 583.87 987.93 589.05 994.32 589.05H1042.98V565.94H1005.87V461.54C1005.87 455.16 1000.7 449.98 994.31 449.98H941.86V473.1H982.75V577.49H982.76Z" fill="#7115AA"/>
<path d="M1538.12 450H1396.72C1390.38 450 1385.23 455.14 1385.23 461.48V618.84C1385.23 625.18 1390.38 630.32 1396.72 630.32H1538.12C1544.46 630.32 1549.6 625.18 1549.6 618.84V461.48C1549.6 455.14 1544.46 450 1538.12 450ZM1526.64 607.36H1408.2V472.97H1526.64V607.36Z" fill="#7115AA"/>
<path d="M1497.25 491.27H1437.59C1431.38 491.27 1426.34 496.31 1426.34 502.52V553.3H1448.85V513.77H1486V566.56H1448.85V548.28H1426.34V577.81C1426.34 584.02 1431.38 589.06 1437.59 589.06H1497.25C1503.47 589.06 1508.51 584.02 1508.51 577.81V502.52C1508.51 496.31 1503.47 491.27 1497.25 491.27Z" fill="#7115AA"/>
</g>
<defs>
<clipPath id="clip0_65_176">
<rect width="1179.6" height="181.46" fill="white" transform="translate(370 449)"/>
</clipPath>
</defs>
</svg>
