<svg width="1920" height="1080" viewBox="0 0 1920 1080" fill="none" xmlns="http://www.w3.org/2000/svg">
<rect width="1920" height="1080" fill="white"/>
<path d="M1033.86 449.99H876V473.1H1022.3V532.81H928.97C922.59 532.81 917.41 537.98 917.41 544.37V590.05H940.53V555.93H1033.86C1040.24 555.93 1045.42 550.76 1045.42 544.37V461.54C1045.42 455.16 1040.25 449.98 1033.86 449.98V449.99Z" fill="#1F0430"/>
<path d="M958.82 607.34H899.12V514.51H1004.01V491.4H887.56C881.18 491.4 876 496.57 876 502.96V618.91C876 625.29 881.17 630.47 887.56 630.47H970.38C976.76 630.47 981.94 625.3 981.94 618.91V574.23H958.82V607.36V607.34Z" fill="#1F0430"/>
</svg>
